<svg width="800px" height="800px" viewBox="0 0 24 24" fill="none" xmlns="http://www.w3.org/2000/svg">
<path d="M7 20.2622C7 20.0964 7.06521 19.9373 7.18048 19.822C7.29575 19.7067 7.45481 19.6415 7.62061 19.6415C10.2524 19.6415 10.4856 16.5414 12.0003 14.3792C13.515 16.5414 13.7482 19.6415 16.38 19.6415C16.5458 19.6415 16.7049 19.7067 16.8201 19.822C16.9354 19.9373 17.0006 20.0964 17.0006 20.2622C17.0006 20.428 16.9354 20.5871 16.8201 20.7023C16.7049 20.8176 16.5458 20.8828 16.38 20.8828H7.62061C7.45481 20.8828 7.29575 20.8176 7.18048 20.7023C7.06521 20.5871 7 20.428 7 20.2622Z" stroke="#FFFFFF" stroke-width="1.5" stroke-linecap="round" stroke-linejoin="round"/>
<path d="M12 14.5C12 14.5 12 10.5 12 7.5C12 4.5 14.5 2 17 4.5" stroke="#FFFFFF" stroke-width="1.5" stroke-linecap="round" stroke-linejoin="round"/>
<path d="M12 14.5C12 14.5 12 10.5 12 7.5C12 4.5 9.5 2 7 4.5" stroke="#FFFFFF" stroke-width="1.5" stroke-linecap="round" stroke-linejoin="round"/>
</svg> 